<svg width="9" height="14" viewBox="0 0 9 14" fill="none" xmlns="http://www.w3.org/2000/svg">
<path d="M8.53062 0.392341C8.53062 0.289502 8.48977 0.190875 8.41705 0.118157C8.34433 0.0454383 8.24571 0.00458546 8.14287 0.00458546H6.20409C5.22782 -0.0440462 4.27198 0.295706 3.54542 0.949608C2.81886 1.60351 2.38065 2.5184 2.32653 3.49439V5.58827H0.387756C0.284916 5.58827 0.186289 5.62912 0.113571 5.70184C0.0408528 5.77456 0 5.87318 0 5.97602V7.99235C0 8.09519 0.0408528 8.19382 0.113571 8.26654C0.186289 8.33926 0.284916 8.38011 0.387756 8.38011H2.32653V13.576C2.32653 13.6789 2.36739 13.7775 2.4401 13.8502C2.51282 13.9229 2.61145 13.9638 2.71429 13.9638H5.04082C5.14366 13.9638 5.24229 13.9229 5.31501 13.8502C5.38773 13.7775 5.42858 13.6789 5.42858 13.576V8.38011H7.46042C7.54665 8.38135 7.63083 8.35381 7.69965 8.30184C7.76847 8.24987 7.81801 8.17645 7.84042 8.09317L8.39879 6.07684C8.41421 6.01955 8.41629 5.95948 8.40485 5.90126C8.39341 5.84304 8.36876 5.78822 8.3328 5.74102C8.29684 5.69382 8.25053 5.65551 8.19744 5.62903C8.14434 5.60255 8.08587 5.5886 8.02654 5.58827H5.42858V3.49439C5.44787 3.30243 5.53801 3.12455 5.68141 2.9955C5.82481 2.86644 6.01117 2.79546 6.20409 2.79643H8.14287C8.24571 2.79643 8.34433 2.75557 8.41705 2.68286C8.48977 2.61014 8.53062 2.51151 8.53062 2.40867V0.392341Z" fill="#FF541F"/>
</svg>
