<svg width="18" height="17" viewBox="0 0 18 17" fill="none" xmlns="http://www.w3.org/2000/svg">
<path d="M8.53062 0.000436581C6.29208 -0.0223108 4.13609 0.844664 2.53649 2.41082C0.936885 3.97698 0.0245528 6.11417 0 8.35269C0.00862553 10.1218 0.577712 11.8426 1.62552 13.268C2.67333 14.6934 4.14594 15.7501 5.83184 16.2862C6.25838 16.3637 6.41348 16.1078 6.41348 15.8829C6.41348 15.658 6.41348 15.1617 6.41348 14.4637C4.04041 14.9678 3.53633 13.347 3.53633 13.347C3.37836 12.8382 3.04251 12.4032 2.59021 12.1217C1.8147 11.6098 2.65225 11.6176 2.65225 11.6176C2.9203 11.6534 3.17677 11.7495 3.40241 11.8986C3.62805 12.0477 3.817 12.2459 3.95511 12.4784C4.19577 12.8957 4.59066 13.2019 5.05479 13.331C5.51892 13.46 6.01517 13.4018 6.43674 13.1686C6.4801 12.7439 6.67241 12.3483 6.9796 12.0519C5.08735 11.8425 3.10204 11.129 3.10204 7.92616C3.08512 7.09069 3.39383 6.28139 3.96286 5.66942C3.70371 4.95213 3.73431 4.16207 4.04817 3.46697C4.04817 3.46697 4.76939 3.24207 6.3747 4.32003C7.77209 3.94766 9.24262 3.94766 10.64 4.32003C12.2686 3.24207 12.9665 3.46697 12.9665 3.46697C13.2804 4.16207 13.311 4.95213 13.0519 5.66942C13.6341 6.27017 13.9595 7.07404 13.9592 7.91065C13.9592 11.1213 11.9584 11.827 10.0816 12.0364C10.2871 12.2359 10.4459 12.4785 10.5464 12.7466C10.647 13.0148 10.6869 13.302 10.6633 13.5874V15.8751C10.6633 15.8751 10.8184 16.3637 11.2449 16.2784C12.926 15.739 14.3937 14.6821 15.4383 13.2587C16.4828 11.8353 17.0509 10.1182 17.0612 8.35269C17.0367 6.11417 16.1244 3.97698 14.5248 2.41082C12.9252 0.844664 10.7692 -0.0223108 8.53062 0.000436581Z" fill="#FF541F"/>
</svg>
