<svg width="16" height="16" viewBox="0 0 16 16" fill="none" xmlns="http://www.w3.org/2000/svg">
<path d="M12.0239 9.31405C11.7969 10.1038 11.3469 10.8114 10.728 11.352C10.109 11.8925 9.34729 12.2432 8.53412 12.3618C7.89822 12.4541 7.25024 12.4169 6.62907 12.2525C6.00791 12.0881 5.42636 11.7999 4.91935 11.4051C4.41235 11.0104 3.99033 10.5173 3.67864 9.95536C3.36695 9.39346 3.17202 8.77438 3.10554 8.13527C3.05404 7.49366 3.13623 6.84834 3.3469 6.24011C3.55756 5.63188 3.89213 5.07398 4.32945 4.60167C4.76678 4.12936 5.29733 3.75293 5.88758 3.49617C6.47783 3.2394 7.11493 3.1079 7.75861 3.10996C8.36176 3.11081 8.95923 3.22662 9.51902 3.45118C9.60717 3.49076 9.70691 3.49599 9.79872 3.46587C9.89053 3.43575 9.96778 3.37243 10.0153 3.28833L11.1321 1.23322C11.1561 1.18589 11.1706 1.13427 11.1746 1.08133C11.1787 1.0284 11.1722 0.975186 11.1556 0.924749C11.1391 0.874313 11.1127 0.827645 11.078 0.787423C11.0434 0.747201 11.0011 0.714217 10.9537 0.690363C9.75455 0.147437 8.43693 -0.0813161 7.12494 0.0256479C5.81296 0.132612 4.54979 0.571773 3.45441 1.30177C2.35902 2.03176 1.46748 3.02857 0.863756 4.1983C0.260027 5.36802 -0.0360208 6.67218 0.00349587 7.98793C0.0799192 9.94213 0.883216 11.7974 2.25603 13.1903C3.62884 14.5832 5.47225 15.4133 7.42514 15.5181C9.47088 15.6089 11.4695 14.8868 12.9848 13.5095C14.5002 12.1321 15.4092 10.2114 15.5137 8.16629C15.5137 8.01119 15.5137 7.11935 15.5137 6.61527C15.5117 6.51305 15.4702 6.41557 15.398 6.34328C15.3257 6.27099 15.2282 6.2295 15.126 6.22751H8.14636C8.04352 6.22751 7.9449 6.26837 7.87218 6.34109C7.79946 6.4138 7.75861 6.51243 7.75861 6.61527V8.9418C7.75861 9.04464 7.79946 9.14327 7.87218 9.21599C7.9449 9.28871 8.04352 9.32956 8.14636 9.32956H12.0239" fill="#FF541F"/>
</svg>
