<svg width="100" height="124" viewBox="-80 0 320 400" fill="none" xmlns="http://www.w3.org/2000/svg">
<path d="M-11.4665 264.943L172.781 262.374M-11.4665 264.943L78.3323 104.737M-11.4665 264.943L-67.1328 298.309M-11.4665 264.943L-70.6057 126.797M-11.4665 264.943L83.024 383.189M172.781 262.374L78.3323 104.737M172.781 262.374L228.557 121.956M172.781 262.374L229.875 294.956M172.781 262.374L83.024 383.189M78.3323 104.737L228.557 121.956M78.3323 104.737L77.9579 38.1246M78.3323 104.737L-70.6057 126.797M83.024 383.189L229.875 294.956L228.557 121.956L77.9579 38.1246L-70.6057 126.797L-67.1328 298.309L83.024 383.189Z" stroke="white" stroke-width="1.22657" stroke-linecap="round" stroke-linejoin="round"/>
</svg>
