<svg width="14" height="14" viewBox="0 0 14 14" fill="none" xmlns="http://www.w3.org/2000/svg">
<path fill-rule="evenodd" clip-rule="evenodd" d="M13.5093 4.56764C13.6614 4.68885 13.7745 4.85211 13.8345 5.03711C13.8957 5.22286 13.9005 5.42255 13.8485 5.61106C13.7965 5.79956 13.6898 5.96847 13.542 6.09653L10.9706 8.34029C10.9029 8.39931 10.8526 8.47558 10.8249 8.56097C10.7972 8.64636 10.7933 8.73766 10.8134 8.82513L11.5838 12.1665C11.6282 12.3563 11.6156 12.5551 11.5476 12.7378C11.4796 12.9205 11.3593 13.0792 11.2016 13.1939C11.044 13.3086 10.856 13.3742 10.6612 13.3827C10.4664 13.3911 10.2735 13.3419 10.1065 13.2413L7.19644 11.4764C7.11894 11.4294 7.03003 11.4046 6.93939 11.4046C6.84875 11.4046 6.75985 11.4294 6.68235 11.4764L3.77924 13.2413C3.6123 13.3419 3.41941 13.391 3.22469 13.3826C3.02996 13.3742 2.84204 13.3085 2.6844 13.1939C2.52677 13.0793 2.40642 12.9207 2.33839 12.7381C2.27036 12.5554 2.25767 12.3568 2.30191 12.167L3.0728 8.8286C3.09301 8.74118 3.08911 8.6499 3.06152 8.56452C3.03393 8.47913 2.98369 8.40283 2.91614 8.34376L0.344191 6.09653C0.196251 5.96902 0.0892629 5.80066 0.0366516 5.61258C-0.0159597 5.42449 -0.0118508 5.22506 0.0484628 5.0393C0.108776 4.85354 0.222608 4.68973 0.375674 4.56842C0.528741 4.44712 0.714224 4.37372 0.908849 4.35744L4.29482 4.06445C4.38491 4.05664 4.47115 4.02433 4.5442 3.97103C4.61725 3.91773 4.67433 3.84546 4.70926 3.76204L6.03143 0.607591C6.10658 0.427629 6.23329 0.273918 6.3956 0.165803C6.55792 0.0576875 6.74858 0 6.94361 0C7.13863 0 7.3293 0.0576875 7.49161 0.165803C7.65393 0.273918 7.78063 0.427629 7.85579 0.607591L9.18241 3.76254C9.21748 3.84577 9.27463 3.91783 9.34767 3.97095C9.42071 4.02407 9.50687 4.05623 9.59686 4.06396L12.9789 4.35546C13.1727 4.37261 13.3571 4.4464 13.5093 4.56764ZM6.94361 0.998242L6.9446 0.998738V0.997746L6.94361 0.998242Z" fill="#FF541F"/>
</svg>
