<svg width="14" height="13" viewBox="0 0 14 13" fill="none" xmlns="http://www.w3.org/2000/svg">
<path d="M3.93679 12.4058C5.08353 12.4441 6.22633 12.2522 7.29765 11.8414C8.36897 11.4306 9.34707 10.8092 10.1741 10.0139C11.0012 9.21867 11.6605 8.26568 12.113 7.21129C12.5655 6.1569 12.802 5.0225 12.8086 3.87513C13.3342 3.2248 13.7244 2.47598 13.9564 1.67268C13.9737 1.60921 13.9723 1.54209 13.9524 1.4794C13.9324 1.41671 13.8948 1.36112 13.844 1.31933C13.7932 1.27753 13.7314 1.25132 13.666 1.24384C13.6006 1.23636 13.5345 1.24793 13.4756 1.27717C13.2006 1.40951 12.8911 1.45226 12.5906 1.39939C12.2901 1.34652 12.0137 1.2007 11.8005 0.982472C11.5282 0.684349 11.1989 0.443903 10.832 0.275382C10.4652 0.106861 10.0682 0.0136933 9.66467 0.00139914C9.26114 -0.010895 8.85924 0.0579348 8.48279 0.20381C8.10634 0.349685 7.763 0.569638 7.47312 0.850635C7.07621 1.23502 6.78549 1.71556 6.62922 2.24553C6.47294 2.7755 6.45643 3.33689 6.58128 3.87513C3.98332 4.03023 2.19964 2.79717 0.772703 1.10655C0.729835 1.05801 0.673759 1.023 0.611322 1.00579C0.548884 0.988588 0.482789 0.989938 0.421106 1.00968C0.359423 1.02941 0.304823 1.06669 0.263973 1.11694C0.223122 1.1672 0.19779 1.22826 0.19107 1.29268C-0.0807704 2.8006 0.115325 4.3556 0.753019 5.74882C1.39071 7.14204 2.43947 8.30677 3.75842 9.08657C2.87406 10.1008 1.63213 10.7343 0.291886 10.8547C0.220083 10.8666 0.1538 10.9007 0.102314 10.9521C0.0508272 11.0036 0.0167141 11.0698 0.00474857 11.1416C-0.00721697 11.2134 0.003564 11.2872 0.0355826 11.3525C0.0676012 11.4179 0.119255 11.4716 0.183315 11.5062C1.34931 12.0889 2.63333 12.3966 3.93679 12.4058Z" fill="#FF541F"/>
</svg>
