<svg width="9" height="14" viewBox="0 0 9 14" fill="none" xmlns="http://www.w3.org/2000/svg"><path d="M5.688 0.016 C 4.853 0.092,4.061 0.454,3.460 1.034 C 2.824 1.648,2.433 2.446,2.340 3.318 C 2.331 3.404,2.325 3.904,2.325 4.529 L 2.325 5.595 1.308 5.595 L 0.291 5.595 0.213 5.634 C 0.121 5.680,0.055 5.754,0.023 5.848 C -0.012 5.949,-0.012 8.016,0.023 8.117 C 0.056 8.213,0.123 8.287,0.222 8.335 L 0.307 8.377 1.316 8.382 L 2.325 8.386 2.325 11.008 C 2.325 13.891,2.319 13.701,2.416 13.819 C 2.440 13.849,2.499 13.892,2.547 13.915 L 2.632 13.957 3.877 13.957 L 5.122 13.957 5.208 13.915 C 5.256 13.892,5.315 13.849,5.339 13.819 C 5.436 13.701,5.430 13.891,5.430 11.008 L 5.430 8.386 6.491 8.382 C 7.673 8.377,7.600 8.384,7.724 8.271 C 7.759 8.240,7.796 8.197,7.808 8.175 C 7.833 8.126,8.398 6.092,8.410 6.007 C 8.429 5.870,8.339 5.705,8.207 5.637 L 8.127 5.595 6.778 5.595 L 5.430 5.595 5.430 4.526 C 5.430 3.365,5.429 3.383,5.515 3.213 C 5.602 3.042,5.775 2.896,5.969 2.832 C 6.066 2.799,6.086 2.799,7.162 2.791 C 8.397 2.781,8.311 2.790,8.429 2.662 C 8.539 2.543,8.537 2.572,8.532 1.363 L 8.527 0.292 8.483 0.212 C 8.438 0.131,8.391 0.087,8.295 0.036 C 8.245 0.009,8.183 0.007,7.035 0.006 C 6.371 0.004,5.765 0.009,5.688 0.016 " fill="#FF541F" stroke="none" fill-rule="evenodd"></path></svg>