<svg width="18" height="17" viewBox="0 0 18 17" fill="none" xmlns="http://www.w3.org/2000/svg"><path d="M7.752 0.029 C 5.752 0.209,3.928 1.049,2.524 2.438 C 1.412 3.538,0.674 4.817,0.270 6.345 C -0.170 8.004,-0.058 9.768,0.591 11.400 C 1.490 13.663,3.356 15.449,5.637 16.229 C 5.953 16.338,6.113 16.336,6.257 16.223 C 6.407 16.105,6.420 16.025,6.420 15.222 L 6.420 14.482 6.292 14.500 C 5.863 14.562,5.567 14.584,5.370 14.567 C 4.650 14.505,4.064 14.205,3.738 13.732 C 3.677 13.643,3.575 13.441,3.512 13.285 C 3.316 12.796,3.060 12.461,2.672 12.189 C 2.383 11.987,2.280 11.881,2.280 11.789 C 2.280 11.581,2.785 11.589,3.213 11.803 C 3.550 11.972,3.698 12.117,4.061 12.637 C 4.547 13.332,5.517 13.601,6.280 13.251 C 6.433 13.181,6.435 13.178,6.469 12.999 C 6.515 12.755,6.644 12.475,6.816 12.247 C 6.894 12.144,6.948 12.060,6.936 12.060 C 6.925 12.060,6.747 12.033,6.541 11.999 C 5.423 11.817,4.663 11.473,4.107 10.900 C 3.632 10.411,3.352 9.836,3.189 9.015 C 3.147 8.800,3.136 8.595,3.136 8.010 C 3.136 7.293,3.138 7.268,3.219 7.005 C 3.360 6.547,3.611 6.074,3.874 5.775 L 3.965 5.671 3.919 5.528 C 3.804 5.170,3.766 4.533,3.837 4.150 C 3.880 3.920,3.980 3.609,4.041 3.513 C 4.085 3.445,4.097 3.442,4.331 3.459 C 4.803 3.493,5.397 3.722,6.057 4.125 L 6.380 4.321 6.643 4.259 C 7.800 3.984,9.188 3.986,10.383 4.263 L 10.641 4.323 10.908 4.155 C 11.489 3.790,12.119 3.531,12.570 3.473 C 12.933 3.426,12.965 3.439,13.044 3.667 C 13.252 4.266,13.275 4.898,13.109 5.479 L 13.051 5.680 13.165 5.803 C 13.458 6.121,13.722 6.621,13.853 7.104 C 13.926 7.373,13.932 7.442,13.933 8.010 C 13.933 8.385,13.918 8.719,13.894 8.865 C 13.744 9.769,13.425 10.428,12.887 10.944 C 12.600 11.220,12.370 11.380,12.015 11.549 C 11.592 11.752,10.831 11.959,10.297 12.017 C 10.194 12.029,10.110 12.043,10.110 12.049 C 10.110 12.055,10.170 12.138,10.243 12.232 C 10.410 12.448,10.540 12.709,10.604 12.958 C 10.647 13.123,10.654 13.335,10.651 14.509 C 10.649 15.809,10.651 15.875,10.708 15.986 C 10.776 16.120,10.921 16.252,11.029 16.279 C 11.213 16.325,11.666 16.172,12.375 15.824 C 15.224 14.427,17.052 11.518,17.050 8.385 C 17.050 7.772,17.017 7.431,16.903 6.840 C 16.696 5.769,16.253 4.690,15.655 3.794 C 15.285 3.239,15.071 2.979,14.581 2.487 C 13.851 1.753,13.187 1.284,12.231 0.826 C 11.404 0.430,10.634 0.201,9.705 0.075 C 9.292 0.019,8.162 -0.008,7.752 0.029 " fill="#FF541F" stroke="none" fill-rule="evenodd"></path></svg>