<svg width="16" height="16" viewBox="0 0 16 16" fill="none" xmlns="http://www.w3.org/2000/svg"><path d="M6.973 0.041 C 5.138 0.245,3.549 1.004,2.265 2.291 C 1.849 2.709,1.636 2.967,1.309 3.454 C 0.344 4.892,-0.127 6.693,0.027 8.360 C 0.269 10.984,1.769 13.286,4.064 14.557 C 4.980 15.064,6.061 15.395,7.132 15.495 C 7.587 15.538,8.439 15.513,8.893 15.444 C 10.048 15.267,11.120 14.852,12.075 14.212 C 13.898 12.989,15.084 11.120,15.442 8.907 C 15.492 8.596,15.501 8.408,15.511 7.547 C 15.524 6.428,15.524 6.426,15.336 6.301 L 15.245 6.240 11.624 6.240 L 8.002 6.240 7.911 6.320 C 7.861 6.364,7.806 6.433,7.789 6.474 C 7.767 6.527,7.761 6.905,7.766 7.819 C 7.773 9.056,7.775 9.091,7.829 9.165 C 7.859 9.206,7.925 9.261,7.975 9.287 C 8.060 9.330,8.214 9.333,10.037 9.333 L 12.007 9.333 11.990 9.416 C 11.981 9.462,11.920 9.627,11.854 9.783 C 11.437 10.770,10.694 11.544,9.726 11.999 C 8.404 12.621,6.749 12.526,5.436 11.753 C 4.071 10.949,3.165 9.468,3.101 7.933 C 3.026 6.142,4.018 4.447,5.620 3.631 C 6.371 3.249,7.062 3.098,7.930 3.128 C 8.468 3.147,8.873 3.221,9.338 3.388 C 9.694 3.514,9.800 3.513,9.934 3.377 C 10.062 3.246,11.151 1.219,11.167 1.082 C 11.191 0.864,11.082 0.743,10.733 0.599 C 10.131 0.349,9.385 0.150,8.747 0.066 C 8.277 0.005,7.405 -0.007,6.973 0.041 " fill="#FF541F" stroke="none" fill-rule="evenodd"></path></svg>