<svg width="14" height="7" viewBox="0 0 14 7" fill="none" xmlns="http://www.w3.org/2000/svg"><path d="M0.000 0.583 C 0.000 0.904,0.004 1.167,0.010 1.167 C 0.015 1.167,1.675 1.524,3.698 1.960 L 7.377 2.753 10.191 2.753 C 11.738 2.753,12.999 2.748,12.992 2.741 C 12.985 2.734,10.083 2.120,6.542 1.376 C 3.002 0.633,0.081 0.019,0.053 0.012 L 0.000 -0.001 0.000 0.583 M3.687 4.641 C 1.730 5.074,0.099 5.436,0.064 5.445 L 0.000 5.461 0.000 6.044 L 0.000 6.628 0.053 6.615 C 0.081 6.607,2.998 5.983,6.533 5.227 L 12.962 3.853 10.103 3.853 L 7.245 3.853 3.687 4.641 " fill="#D6DBDC" stroke="none" fill-rule="evenodd"></path></svg>