<svg width="14" height="14" viewBox="0 0 14 14" fill="none" xmlns="http://www.w3.org/2000/svg"><path d="M6.708 0.031 C 6.466 0.095,6.219 0.277,6.100 0.479 C 6.069 0.531,5.739 1.303,5.365 2.195 C 4.992 3.086,4.662 3.848,4.631 3.888 C 4.507 4.050,4.541 4.045,2.612 4.211 C 1.644 4.295,0.806 4.374,0.750 4.387 C 0.297 4.497,-0.026 4.936,0.006 5.398 C 0.019 5.589,0.087 5.785,0.188 5.925 C 0.227 5.978,0.872 6.558,1.621 7.213 C 3.074 8.482,3.080 8.488,3.080 8.697 C 3.080 8.750,2.901 9.568,2.682 10.516 C 2.394 11.758,2.283 12.281,2.282 12.390 C 2.274 13.096,3.012 13.583,3.658 13.299 C 3.713 13.275,4.425 12.850,5.239 12.355 C 6.054 11.859,6.752 11.443,6.792 11.429 C 6.831 11.416,6.918 11.409,6.987 11.415 C 7.101 11.424,7.222 11.493,8.622 12.342 C 9.453 12.846,10.176 13.278,10.229 13.301 C 10.490 13.416,10.774 13.408,11.053 13.278 C 11.424 13.104,11.664 12.661,11.600 12.266 C 11.587 12.186,11.402 11.366,11.188 10.442 C 10.911 9.243,10.802 8.735,10.809 8.667 C 10.832 8.463,10.844 8.450,12.236 7.237 C 12.969 6.597,13.603 6.035,13.645 5.988 C 14.117 5.449,13.846 4.577,13.148 4.390 C 13.097 4.376,12.264 4.296,11.298 4.213 C 9.384 4.047,9.413 4.052,9.275 3.895 C 9.227 3.840,8.991 3.306,8.519 2.182 C 8.141 1.283,7.807 0.509,7.777 0.460 C 7.617 0.204,7.319 0.030,7.011 0.012 C 6.898 0.005,6.779 0.013,6.708 0.031 " fill="#FF541F" stroke="none" fill-rule="evenodd"></path></svg>