<svg width="24" height="24" viewBox="0 0 24 24" fill="none" xmlns="http://www.w3.org/2000/svg"><path d="M19.460 4.619 C 19.328 4.674,19.211 4.720,19.201 4.720 C 19.190 4.720,16.891 7.010,14.091 9.809 L 9.001 14.899 6.910 12.816 C 4.518 10.432,4.656 10.540,4.000 10.540 C 3.674 10.540,3.588 10.555,3.398 10.644 C 2.587 11.025,2.282 11.949,2.708 12.740 C 2.813 12.933,8.077 18.193,8.280 18.306 C 8.513 18.436,8.774 18.490,9.087 18.472 C 9.691 18.438,9.188 18.899,15.512 12.584 C 21.982 6.122,21.460 6.700,21.460 6.000 C 21.460 5.650,21.449 5.596,21.330 5.354 C 21.176 5.041,20.924 4.795,20.607 4.647 C 20.272 4.491,19.792 4.479,19.460 4.619 " stroke="none" fill-rule="evenodd" fill="black"></path></svg>