<svg xmlns="http://www.w3.org/2000/svg" viewBox="0 0 24 24" width="48" height="48" fill="none" stroke="currentColor" stroke-width="3" stroke-linecap="round" stroke-linejoin="round"><path d="M39.031 9.154 C 38.872 9.214,38.584 9.361,38.391 9.481 C 38.198 9.600,33.532 14.201,28.021 19.707 L 18.002 29.716 13.901 25.635 C 9.129 20.885,9.381 21.080,8.000 21.080 C 7.232 21.080,7.121 21.100,6.703 21.311 C 5.196 22.075,4.608 23.783,5.317 25.337 C 5.503 25.746,6.150 26.423,10.864 31.136 C 15.577 35.850,16.254 36.497,16.663 36.683 C 17.530 37.079,18.469 37.079,19.337 36.684 C 19.753 36.495,20.953 35.321,31.137 25.137 C 41.321 14.953,42.495 13.753,42.684 13.337 C 43.392 11.781,42.804 10.075,41.297 9.311 C 40.901 9.111,40.739 9.078,40.080 9.062 C 39.588 9.050,39.218 9.083,39.031 9.154 " stroke="none" fill="black" fill-rule="evenodd"></path></svg>