<svg width="14" height="13" viewBox="0 0 14 13" fill="none" xmlns="http://www.w3.org/2000/svg"><path d="M9.182 0.025 C 7.849 0.208,6.781 1.256,6.544 2.613 C 6.496 2.885,6.495 3.437,6.542 3.687 C 6.560 3.783,6.569 3.867,6.563 3.873 C 6.558 3.880,6.346 3.884,6.094 3.882 C 4.611 3.873,3.312 3.401,2.112 2.435 C 1.802 2.185,1.268 1.670,0.954 1.316 C 0.827 1.173,0.692 1.043,0.653 1.027 C 0.496 0.961,0.302 1.035,0.222 1.190 C 0.157 1.318,0.070 2.138,0.070 2.625 C 0.071 4.292,0.637 5.916,1.693 7.280 C 1.941 7.600,2.534 8.200,2.856 8.457 C 2.982 8.558,3.234 8.740,3.416 8.862 C 3.597 8.983,3.748 9.085,3.752 9.088 C 3.767 9.101,3.285 9.568,3.115 9.705 C 2.369 10.304,1.486 10.686,0.520 10.825 C 0.179 10.874,0.103 10.909,0.038 11.046 C -0.014 11.155,-0.010 11.258,0.053 11.369 C 0.099 11.451,0.139 11.479,0.385 11.597 C 0.877 11.834,1.550 12.066,2.100 12.189 C 2.707 12.324,3.194 12.382,3.912 12.404 C 4.944 12.436,5.912 12.297,6.890 11.979 C 9.931 10.987,12.164 8.388,12.691 5.227 C 12.748 4.886,12.810 4.262,12.810 4.032 C 12.810 3.873,12.811 3.871,12.947 3.692 C 13.360 3.149,13.709 2.467,13.918 1.794 C 13.993 1.551,13.978 1.447,13.850 1.335 C 13.738 1.237,13.620 1.221,13.462 1.284 C 13.121 1.420,12.845 1.452,12.553 1.391 C 12.250 1.327,12.041 1.205,11.721 0.905 C 11.566 0.759,11.364 0.589,11.271 0.527 C 10.926 0.296,10.538 0.134,10.144 0.058 C 9.908 0.012,9.402 -0.005,9.182 0.025 " fill="#FF541F" stroke="none" fill-rule="evenodd"></path></svg>